<svg width="106" height="44" viewBox="0 0 106 44" fill="none" xmlns="http://www.w3.org/2000/svg">
<path d="M20.2069 19C19.8949 19 19.6869 18.948 19.5829 18.844C19.4789 18.7227 19.4269 18.5667 19.4269 18.376C19.4269 18.1507 19.4962 17.9687 19.6349 17.83C19.7909 17.6913 20.0682 17.622 20.4669 17.622H22.8069V1.944H20.4669C20.0682 1.944 19.7909 1.87467 19.6349 1.736C19.4962 1.59733 19.4269 1.41533 19.4269 1.19C19.4269 0.999332 19.4789 0.851999 19.5829 0.747999C19.6869 0.626666 19.8949 0.565999 20.2069 0.565999H28.2149C28.5269 0.565999 28.7349 0.626666 28.8389 0.747999C28.9429 0.851999 28.9949 0.999332 28.9949 1.19C28.9949 1.41533 28.9169 1.59733 28.7609 1.736C28.6222 1.87467 28.3535 1.944 27.9549 1.944H25.6149V17.622H27.9549C28.3535 17.622 28.6222 17.6913 28.7609 17.83C28.9169 17.9687 28.9949 18.1507 28.9949 18.376C28.9949 18.5667 28.9429 18.7227 28.8389 18.844C28.7349 18.948 28.5269 19 28.2149 19H20.2069ZM35.6302 1.866C35.6302 1.41533 35.7255 1.086 35.9162 0.877999C36.1242 0.669999 36.4275 0.565999 36.8262 0.565999H40.5442C46.6282 0.565999 49.6702 3.608 49.6702 9.692C49.6702 11.9627 49.1935 13.8 48.2402 15.204C47.3042 16.5907 46.1515 17.57 44.7822 18.142C43.4302 18.714 42.0608 19 40.6742 19H36.8262C36.4275 19 36.1242 18.896 35.9162 18.688C35.7255 18.48 35.6302 18.1507 35.6302 17.7V1.866ZM38.4382 17.622H39.0102V17.596H40.2322C42.1562 17.596 43.7162 16.946 44.9122 15.646C46.1255 14.346 46.7322 12.3613 46.7322 9.692C46.7322 6.988 46.1342 5.02067 44.9382 3.79C43.7595 2.55933 42.1908 1.944 40.2322 1.944H38.4382V17.622ZM55.8675 19C55.5555 19 55.3475 18.948 55.2435 18.844C55.1395 18.7227 55.0875 18.5667 55.0875 18.376C55.0875 18.1507 55.1568 17.9687 55.2955 17.83C55.4515 17.6913 55.7288 17.622 56.1275 17.622H58.4675V1.944H56.1275C55.7288 1.944 55.4515 1.87467 55.2955 1.736C55.1568 1.59733 55.0875 1.41533 55.0875 1.19C55.0875 0.999332 55.1395 0.851999 55.2435 0.747999C55.3475 0.626666 55.5555 0.565999 55.8675 0.565999H63.8755C64.1875 0.565999 64.3955 0.626666 64.4995 0.747999C64.6035 0.851999 64.6555 0.999332 64.6555 1.19C64.6555 1.41533 64.5775 1.59733 64.4215 1.736C64.2828 1.87467 64.0142 1.944 63.6155 1.944H61.2755V17.622H63.6155C64.0142 17.622 64.2828 17.6913 64.4215 17.83C64.5775 17.9687 64.6555 18.1507 64.6555 18.376C64.6555 18.5667 64.6035 18.7227 64.4995 18.844C64.3955 18.948 64.1875 19 63.8755 19H55.8675ZM81.2228 5.298C80.7201 5.298 80.3388 5.17667 80.0788 4.934C79.8361 4.674 79.7148 4.258 79.7148 3.686V2.36C79.6454 2.34267 79.4981 2.29933 79.2728 2.23C78.4754 2.00467 77.6001 1.892 76.6468 1.892C75.8841 1.892 75.2428 2.05667 74.7228 2.386C74.2028 2.698 73.8128 3.10533 73.5528 3.608C73.3101 4.09333 73.1888 4.596 73.1888 5.116C73.1888 5.70533 73.2928 6.19067 73.5008 6.572C73.7261 6.95333 74.0814 7.28267 74.5668 7.56C75.0521 7.83733 75.7628 8.14933 76.6988 8.496C78.5534 9.15467 79.9141 9.692 80.7808 10.108C81.6474 10.524 82.3234 11.0353 82.8088 11.642C83.2941 12.2313 83.5368 13.0027 83.5368 13.956C83.5368 14.9267 83.2508 15.7933 82.6788 16.556C82.1241 17.3187 81.2921 17.9167 80.1828 18.35C79.0908 18.7833 77.7821 19 76.2568 19C75.4768 19 74.6188 18.922 73.6828 18.766C72.7641 18.5927 71.9928 18.3847 71.3688 18.142C70.9701 17.9687 70.7014 17.8127 70.5628 17.674C70.4241 17.518 70.3548 17.258 70.3548 16.894V15.334C70.3548 14.502 70.7274 14.086 71.4728 14.086C71.9754 14.086 72.3481 14.216 72.5908 14.476C72.8508 14.7187 72.9808 15.1347 72.9808 15.724V17.128C74.0728 17.492 75.1301 17.674 76.1528 17.674C77.0888 17.674 77.8948 17.5093 78.5708 17.18C79.2468 16.8507 79.7581 16.426 80.1048 15.906C80.4514 15.386 80.6248 14.8313 80.6248 14.242C80.6248 13.67 80.4688 13.1847 80.1568 12.786C79.8621 12.3873 79.4114 12.032 78.8048 11.72C78.1981 11.408 77.3488 11.0527 76.2568 10.654C74.7834 10.0993 73.6481 9.63133 72.8508 9.25C72.0708 8.85133 71.4468 8.34 70.9788 7.716C70.5108 7.07467 70.2768 6.26 70.2768 5.272C70.2768 3.85067 70.8228 2.71533 71.9148 1.866C73.0068 0.999332 74.5234 0.565999 76.4648 0.565999C77.3661 0.565999 78.1894 0.635332 78.9348 0.773999C79.6801 0.895333 80.4601 1.07733 81.2748 1.32C81.6908 1.45867 81.9681 1.606 82.1068 1.762C82.2628 1.918 82.3408 2.178 82.3408 2.542V4.05C82.3408 4.882 81.9681 5.298 81.2228 5.298ZM15.13 22.73C15.59 22.73 15.93 22.85 16.15 23.09C16.39 23.33 16.51 23.71 16.51 24.23V42.5C16.51 43.04 16.41 43.43 16.21 43.67C16.01 43.89 15.67 44 15.19 44C14.57 44 14.09 43.81 13.75 43.43C13.43 43.03 13.27 42.45 13.27 41.69V33.83H3.49V42.05C3.49 42.75 3.34 43.25 3.04 43.55C2.74 43.85 2.27 44 1.63 44C1.17 44 0.82 43.88 0.58 43.64C0.36 43.4 0.25 43.02 0.25 42.5V24.23C0.25 23.69 0.35 23.31 0.55 23.09C0.75 22.85 1.09 22.73 1.57 22.73C2.19 22.73 2.66 22.93 2.98 23.33C3.32 23.71 3.49 24.28 3.49 25.04V32.18H13.27V24.68C13.27 23.98 13.42 23.48 13.72 23.18C14.02 22.88 14.49 22.73 15.13 22.73ZM42.4056 33.38C42.4056 34.88 42.1756 36.42 41.7156 38C41.2756 39.58 40.3756 40.98 39.0156 42.2C37.6556 43.4 35.7256 44 33.2256 44C30.7256 44 28.7956 43.4 27.4356 42.2C26.0956 40.98 25.2056 39.58 24.7656 38C24.3256 36.42 24.1056 34.88 24.1056 33.38C24.1056 31.88 24.3256 30.34 24.7656 28.76C25.2056 27.18 26.0956 25.78 27.4356 24.56C28.7956 23.34 30.7256 22.73 33.2256 22.73C35.7256 22.73 37.6556 23.34 39.0156 24.56C40.3756 25.78 41.2756 27.19 41.7156 28.79C42.1756 30.37 42.4056 31.9 42.4056 33.38ZM39.0156 33.38C39.0156 31.06 38.6256 28.96 37.8456 27.08C37.0656 25.2 35.5256 24.26 33.2256 24.26C30.9656 24.26 29.4456 25.2 28.6656 27.08C27.8856 28.96 27.4956 31.06 27.4956 33.38C27.4956 35.68 27.8856 37.77 28.6656 39.65C29.4456 41.53 30.9656 42.47 33.2256 42.47C35.5256 42.47 37.0656 41.54 37.8456 39.68C38.6256 37.8 39.0156 35.7 39.0156 33.38ZM57.452 42.2C57.452 42.88 57.302 43.35 57.002 43.61C56.722 43.87 56.252 44 55.592 44C55.132 44 54.782 43.88 54.542 43.64C54.322 43.4 54.212 43.02 54.212 42.5V24.32H49.712V26.45C49.712 27.15 49.562 27.65 49.262 27.95C48.982 28.25 48.552 28.4 47.972 28.4C47.532 28.4 47.202 28.28 46.982 28.04C46.782 27.8 46.682 27.42 46.682 26.9V23.84C46.682 23.42 46.822 23.13 47.102 22.97C47.402 22.81 47.862 22.73 48.482 22.73H63.182C63.802 22.73 64.252 22.81 64.532 22.97C64.832 23.13 64.982 23.42 64.982 23.84V26.9C64.982 27.42 64.872 27.8 64.652 28.04C64.452 28.28 64.132 28.4 63.692 28.4C63.112 28.4 62.672 28.25 62.372 27.95C62.092 27.65 61.952 27.15 61.952 26.45V24.32H57.452V42.2ZM83.6838 27.95C83.1038 27.95 82.6638 27.8 82.3638 27.5C82.0838 27.2 81.9438 26.7 81.9438 26V24.32H74.8338V32.18H81.1338C81.3938 32.18 81.5938 32.27 81.7338 32.45C81.8938 32.61 81.9738 32.8 81.9738 33.02C81.9738 33.22 81.8838 33.41 81.7038 33.59C81.5238 33.75 81.3338 33.83 81.1338 33.83H74.8338V42.41H82.3938V40.73C82.3938 40.03 82.5338 39.53 82.8138 39.23C83.1138 38.93 83.5538 38.78 84.1338 38.78C84.5738 38.78 84.8938 38.9 85.0938 39.14C85.3138 39.38 85.4238 39.76 85.4238 40.28V42.89C85.4238 43.31 85.2738 43.6 84.9738 43.76C84.6938 43.92 84.2438 44 83.6238 44H72.9738C72.5138 44 72.1638 43.88 71.9238 43.64C71.7038 43.4 71.5938 43.02 71.5938 42.5V24.23C71.5938 23.71 71.7038 23.33 71.9238 23.09C72.1638 22.85 72.5138 22.73 72.9738 22.73H83.1738C83.7938 22.73 84.2438 22.81 84.5238 22.97C84.8238 23.13 84.9738 23.42 84.9738 23.84V26.45C84.9738 26.97 84.8638 27.35 84.6438 27.59C84.4438 27.83 84.1238 27.95 83.6838 27.95ZM104.401 38.39C104.841 38.39 105.161 38.51 105.361 38.75C105.581 38.99 105.691 39.37 105.691 39.89V43.04C105.691 43.38 105.541 43.63 105.241 43.79C104.941 43.93 104.491 44 103.891 44H93.9913C93.5313 44 93.1813 43.88 92.9413 43.64C92.7213 43.4 92.6113 43.02 92.6113 42.5V24.23C92.6113 23.69 92.7113 23.31 92.9113 23.09C93.1113 22.85 93.4513 22.73 93.9313 22.73C94.5513 22.73 95.0213 22.93 95.3413 23.33C95.6813 23.71 95.8513 24.28 95.8513 25.04V42.41H102.661V40.34C102.661 39.64 102.801 39.14 103.081 38.84C103.381 38.54 103.821 38.39 104.401 38.39Z" fill="#2A0E0E"/>
</svg>
